<?xml version="1.0" encoding="UTF-8"?>
<!DOCTYPE svg PUBLIC "-//W3C//DTD SVG 1.1//EN" "http://www.w3.org/Graphics/SVG/1.1/DTD/svg11.dtd">
<!-- Creator: CorelDRAW -->
<svg xmlns="http://www.w3.org/2000/svg" xml:space="preserve" width="11.7704mm" height="14.2388mm" version="1.1" style="shape-rendering:geometricPrecision; text-rendering:geometricPrecision; image-rendering:optimizeQuality; fill-rule:evenodd; clip-rule:evenodd"
viewBox="0 0 1177.04 1423.88"
 xmlns:xlink="http://www.w3.org/1999/xlink"
 xmlns:xodm="http://www.corel.com/coreldraw/odm/2003">
 <defs>
  <style type="text/css">
   <![CDATA[
    .fil0 {fill:#F5A10D}
    .fil2 {fill:#BB61A1}
    .fil1 {fill:#B4CC1D}
   ]]>
  </style>
    <mask id="id0">
  <radialGradient id="id1" gradientUnits="userSpaceOnUse" cx="-14.59" cy="461.25" r="0" fx="-14.59" fy="461.25">
   <stop offset="0" style="stop-opacity:0.8; stop-color:white"/>
   <stop offset="1" style="stop-opacity:1; stop-color:white"/>
  </radialGradient>
     <rect style="fill:url(#id1)" x="-14.59" y="461.25" width="629.76" height="962.63"/>
    </mask>
    <mask id="id2">
  <radialGradient id="id3" gradientUnits="userSpaceOnUse" cx="673.88" cy="205.45" r="0" fx="673.88" fy="205.45">
   <stop offset="0" style="stop-opacity:0.701961; stop-color:white"/>
   <stop offset="0.431373" style="stop-opacity:0.85098; stop-color:white"/>
   <stop offset="1" style="stop-opacity:1; stop-color:white"/>
  </radialGradient>
     <rect style="fill:url(#id3)" x="673.88" y="205.45" width="488.58" height="1213.74"/>
    </mask>
    <mask id="id4">
  <radialGradient id="id5" gradientUnits="userSpaceOnUse" cx="-7912.26" cy="-3445.71" r="1057.62" fx="-7912.26" fy="-3445.71">
   <stop offset="0" style="stop-opacity:0.8; stop-color:white"/>
   <stop offset="1" style="stop-opacity:1; stop-color:white"/>
  </radialGradient>
     <rect style="fill:url(#id5)" x="238.15" width="520.72" height="1194.78"/>
    </mask>
 </defs>
 <g id="Слой_x0020_1">
  <metadata id="CorelCorpID_0Corel-Layer"/>
  <g id="_2270249578032">
   <path class="fil0" style="mask:url(#id0)" d="M145.63 461.25c-197.84,247.85 -215.08,618.73 -37.07,817.29 114.63,127.89 307.66,183.71 465.59,116.96 75.94,-32.09 44.25,-168.62 -77.03,-278.72 -127.96,-116.15 -305.94,-211.68 -351.49,-655.53z"/>
   <path class="fil1" style="mask:url(#id2)" d="M673.88 205.45c369.47,100.65 606.54,611.03 427.74,991.58 -35.17,74.86 -175.65,242.17 -291,220.18 -84.9,-16.18 -91.85,-267.07 -39.08,-422.12 65.25,-191.73 56.33,-595.74 -97.66,-789.64z"/>
   <path class="fil2" style="mask:url(#id4)" d="M425.2 0c-98.23,120.33 -322.39,496.07 -74.02,813.91 100.02,127.99 237.97,197.34 325.43,380.87 136.13,-311.86 88.84,-585.59 -36.61,-735.63 -116.63,-139.49 -185.36,-317.01 -214.8,-459.15z"/>
  </g>
 </g>
</svg>
